<svg aria-hidden="true" style="position: absolute; width: 0; height: 0; overflow: hidden;" version="1.1" xmlns="http://www.w3.org/2000/svg" xmlns:xlink="http://www.w3.org/1999/xlink">
<defs>
<symbol id="icon-left" viewBox="0 0 32 32">
<path d="M9.841 16.514c-0.284-0.284-0.284-0.745 0-1.028l4.628-4.628c0.284-0.284 0.745-0.284 1.029 0s0.284 0.745 0 1.028l-4.114 4.114 4.114 4.114c0.284 0.284 0.284 0.744 0 1.029s-0.745 0.284-1.029 0l-4.628-4.628zM22.545 16.727h-12.19v-1.455h12.19v1.455z"></path>
</symbol>
<symbol id="icon-rigt" viewBox="0 0 32 32">
<path d="M23.060 15.486c0.284 0.284 0.284 0.744 0 1.029l-4.628 4.628c-0.284 0.284-0.744 0.284-1.029 0s-0.284-0.744 0-1.029l4.114-4.114-4.114-4.114c-0.284-0.284-0.284-0.744 0-1.028s0.744-0.284 1.029 0l4.628 4.628zM22.545 16.727h-12.19v-1.455h12.19v1.455z"></path>
</symbol>
</defs>
</svg>
